<?xml version="1.0" encoding="UTF-8"?><svg id="Laag_1" xmlns="http://www.w3.org/2000/svg" viewBox="0 0 50.32 62.52"><defs><style>.cls-1{fill:#2d0300;stroke-width:0px;}</style></defs><path class="cls-1" d="m42.88,13.26c1.9.43,2.86,2.12,3.37,3.02.63,1.11.77,1.94,1.17,4.6.92,6.11.97,6.9.89,8.04-.15,2.39-.27,3.86-1.44,4.88-1.61,1.4-3.97.9-4.33.82-2.4-.51-3.66-2.42-3.99-2.95-.93-1.54-.88-3.11-.76-6.18.19-4.43,1.1-4.49.84-7.68-.13-1.53-.41-2.37.17-3.24.79-1.2,2.63-1.64,4.08-1.31Z"/><path class="cls-1" d="m33.35,31.56c1.84,1.71,3.42,3.13,4.62,4.19,1.87,1.66,2.37,2.05,3.12,2.47,2.45,1.38,3.45.72,5.16,1.61,3.03,1.58,4.65,6.11,3.87,9.78-.19.88-.78,3.71-2.8,4.52-1.84.74-3.15-.9-5.48-.11-1.15.39-1.03.85-3.12,2.47-1.66,1.29-3.24,2.52-5.48,3.12-.79.21-2.95.79-5.48.22-1.48-.34-2.03-.83-3.01-.54-1.32.39-1.3,1.55-2.8,2.47-1.7,1.04-3.6.7-3.87.65-2.58-.5-3.9-2.84-4.3-3.55-2-3.53-.64-7.39-.43-7.96,1.01-2.74,2.29-2.39,3.44-5.27,1.26-3.15-.04-4.14,1.29-7.2,1.17-2.7,3.18-4.22,3.87-4.73,2.47-1.82,4.93-2.2,6.13-2.37,2.25-.32,4.11-.04,5.27.22Z"/><path class="cls-1" d="m22.19,0c1.12.36,2.77,1.02,4.48,2.28,2.04,1.5,3.15,3.1,4.53,5.08,1.38,1.99,2.18,3.14,2.66,5,.29,1.13.7,2.81.08,4.77-.2.64-.75,2.28-2.38,3.42-.43.3-1.76,1.22-3.26,1.03-1.82-.23-2.87-1.95-4.37-4.49-.85-1.44-1.72-3.92-3.42-8.82-.23-.67-1.04-3.06-.71-5.44.13-.96.41-1.67.99-2.18.5-.43,1.05-.59,1.4-.65Z"/><path class="cls-1" d="m14.49,4.15c1.27,1.12,1.46,2.63,1.79,4.34.87,4.41,1.48,3.58,2.14,7.35.76,4.28,1.28,7.22-.46,8.86-1.45,1.37-3.89,1.29-5.5.69-2.52-.94-3.52-3.39-4.28-5.27-1.19-2.93-1.02-5.42-.81-8.45.23-3.27.92-5.02,1.74-6.31,1.21-1.91,2.24-2.15,2.55-2.2,1.43-.25,2.63.8,2.84.98Z"/><path class="cls-1" d="m4.71,25.05c1.3.49,1.97,1.59,2.66,2.72.63,1.03.53,1.27.98,2.08,1.19,2.13,2.72,1.98,4.4,3.82.32.35,2.02,2.21,2.08,4.86.01.47.09,3.68-2.43,5.27-1.98,1.25-4.21.62-4.52.52-2.22-.68-3.27-2.57-5.09-5.85-1.2-2.16-2.49-4.54-2.72-7.87-.13-1.82-.29-4.17,1.22-5.27,1.04-.75,2.49-.64,3.42-.29Z"/></svg>