<?xml version="1.0" encoding="UTF-8"?><svg id="Laag_1" xmlns="http://www.w3.org/2000/svg" viewBox="0 0 103.38 179.77"><defs><style>.cls-1{fill:#4e2e00;stroke-width:0px;}</style></defs><path class="cls-1" d="m39.56,47.99c-7.83,1.4-11.75,2.11-15.31,3.71-13.64,6.11-18.84,20.73-19.51,22.72-2.7,7.95-1.97,14.32-.99,22.97.57,4.97,1.12,6.17,12.6,39.27,2.49,7.19,4.43,12.79,9.14,18.77,1.87,2.37,2.77,3.02,7.16,8.4,6.04,7.38,6.01,8.19,8.4,10.13,5.45,4.4,11.69,5.11,14.57,5.43,4.07.46,10.62,1.2,17.04-2.72,5.88-3.58,9.82-9.95,10.62-16.3.7-5.56-1.63-6.02-3.95-19.02-1.35-7.58-2.01-11.49-.99-16.55,1.12-5.57,2.85-5.42,5.68-13.09,2.04-5.53,1.29-5.98,4.2-19.27,2.43-11.08,3.2-11.88,3.21-16.3.01-3.65.03-9.26-3.21-15.07-4.3-7.72-11.59-10.83-14.57-12.1-6.56-2.8-12.24-2.76-18.77-2.72-5.89.04-10.37.84-15.31,1.73Z"/><path class="cls-1" d="m2.23,35.19c-.32.35-.94,1.13-1.54,4.78-.66,4.01-.99,6.02-.32,8.51.45,1.71,1.25,4.68,3.89,5.92,2.29,1.07,4.68.23,5.35,0,.61-.21,2.58-.98,3.89-2.84,2.74-3.87.42-9.38-.89-12.48-1.18-2.79-2.01-4.76-4.13-5.51-2.14-.76-4.77,0-6.24,1.62Z"/><path class="cls-1" d="m20.75,21.64c-1.89,1.47-2.48,3.45-2.69,4.2-.61,2.15-.18,3.89.43,6.24.97,3.74,1.67,6.46,4.2,8.18.54.37,3.19,2.28,5.92,1.4,3.2-1.03,4.13-5.09,4.45-6.49.81-3.55-.28-6.45-1.05-8.51-1.12-2.97-1.97-5.24-4.31-6.22-2.39-1-5.18-.18-6.94,1.19Z"/><path class="cls-1" d="m44.02,13.98c-1.37.37-3.25.88-4.68,2.59-1.59,1.89-1.67,4.09-1.73,5.67-.06,1.66.08,6.58,3.96,10.22.95.89,2.82,2.71,5.72,3.05.88.11,3.08.37,4.62-.96,1.23-1.06,1.38-2.56,1.61-5.5.3-3.67-.17-6.36-.74-9.51-.76-4.21-1.3-4.8-1.66-5.1-2.1-1.82-5.67-.85-7.11-.46Z"/><path class="cls-1" d="m68.48,14.08c-2.81.99-4.27,3.22-4.68,3.87-1.43,2.26-1.52,4.44-1.58,6.59-.09,3.08-.22,7.73,3.02,10.5.8.68,2.88,2.17,5.54,1.85,2.75-.34,4.38-2.4,4.87-3.02,2.09-2.65,1.97-5.71,1.76-10.58-.18-4.3-1.03-5.83-1.51-6.55-.47-.72-1.67-2.52-3.86-3.02-1.52-.35-2.77.1-3.56.37Z"/><path class="cls-1" d="m99.6,21.83c-1.22-.66-2.38-.57-3.91-.45-1.94.16-5.13.43-7.81,2.9-1.69,1.56-2.4,3.28-2.79,4.24-1.92,4.78-.35,9.14,0,10.04.96,2.48,2.38,4,3.35,5.02,1.68,1.77,3.45,3.63,5.8,3.57,1.84-.04,3.15-1.23,4.13-2.12,2.93-2.66,3.76-6.08,4.35-8.7.44-1.94,1.42-6.5-.45-11.05-.94-2.3-1.99-3.09-2.68-3.46Z"/><path class="cls-1" d="m6.91,13.94c-.18.02-.22.28-.79,2.42-.76,2.87-.93,3.29-1.01,4.33-.12,1.49-.2,2.43.45,3.15.67.75,1.98,1.11,2.7.62.45-.31.7-.96.45-3.49-.28-2.84-1.08-7.1-1.8-7.04Z"/><path class="cls-1" d="m29.73,1.68c-.26-.02-.35.24-1.47,2.25-1.49,2.69-1.79,3.08-2.05,4.1-.37,1.45-.61,2.37.24,3.21.88.88,2.73,1.49,3.84,1.14.7-.22,1.14-.82,1.12-3.37-.02-2.87-.63-7.25-1.68-7.32Z"/><path class="cls-1" d="m51.32.79c-.26-.05-.37.16-1.63,1.75-1.69,2.14-2.01,2.44-2.35,3.28-.48,1.21-.78,1.97,0,2.8.81.87,2.62,1.63,3.76,1.47.71-.1,1.2-.56,1.36-2.77.19-2.48-.1-6.34-1.15-6.54Z"/><path class="cls-1" d="m71.51.04c-.24.11-.2.38-.2,2.67,0,3.08-.08,3.56.18,4.58.37,1.45.61,2.37,1.76,2.7,1.19.35,3.11-.01,3.92-.85.51-.53.6-1.27-.65-3.49-1.41-2.51-4.04-6.05-5.01-5.61Z"/><path class="cls-1" d="m99.59,5.91c-.18.01-.22.24-.79,2.04-.76,2.41-.93,2.77-1.01,3.65-.12,1.25-.2,2.04.45,2.65.67.63,1.98.93,2.7.52.45-.26.7-.81.45-2.94-.28-2.39-1.08-5.97-1.8-5.92Z"/></svg>